<svg height="480pt" viewBox="0 0 480 480" width="480pt" xmlns="http://www.w3.org/2000/svg" xmlns:xlink="http://www.w3.org/1999/xlink"><linearGradient id="a"><stop offset="0" stop-color="#2dced9"/><stop offset=".155" stop-color="#45cdc4"/><stop offset=".484" stop-color="#83ca8d"/><stop offset=".956" stop-color="#e5c636"/><stop offset="1" stop-color="#efc62d"/></linearGradient><linearGradient id="b" gradientUnits="userSpaceOnUse" x1="-16" x2="488.064" xlink:href="#a" y1="240" y2="240"/><linearGradient id="c" gradientUnits="userSpaceOnUse" x1="-16" x2="488.064" xlink:href="#a" y1="40" y2="40"/><linearGradient id="d" gradientUnits="userSpaceOnUse" x1="-16" x2="488.064" xlink:href="#a" y1="64" y2="64"/><linearGradient id="e" gradientUnits="userSpaceOnUse" x1="-16" x2="488.064" xlink:href="#a" y1="368" y2="368"/><linearGradient id="f" gradientUnits="userSpaceOnUse" x1="-16" x2="488.064" xlink:href="#a" y1="352" y2="352"/><path d="m240 0c-132.546875 0-240 107.453125-240 240s107.453125 240 240 240 240-107.453125 240-240c-.148438-132.484375-107.515625-239.851562-240-240zm54.65625 91.558594-11.558594-17.34375 15.300782-10.214844h29.601562c2.121094 0 4.15625-.84375 5.65625-2.34375l16.550781-16.550781c16.910157 9.601562 32.507813 21.351562 46.402344 34.957031l-7.082031 7.082031-27.605469-6.90625c-1.851563-.472656-3.808594-.257812-5.515625.601563l-32 16c-2.085938 1.042968-3.617188 2.949218-4.183594 5.214844l-6.933594 27.746093-15.136718 5.046875-15.871094-15.863281 12.359375-18.542969c1.796875-2.6875 1.804687-6.191406.015625-8.882812zm-251.945312 42.464844 6.714843 6.710937 7.414063 14.839844c1.785156 3.558593 5.914062 5.265625 9.6875 4l24-8c1.179687-.390625 2.25-1.054688 3.128906-1.933594l22.289062-22.289063 31.628907-6.328124 3.480469 6.960937-12.558594 25.136719-28.433594 7.101562c-3.566406.890625-6.070312 4.101563-6.0625 7.777344v24c0 4.417969 3.582031 8 8 8h24c1.242188 0 2.464844-.285156 3.574219-.839844l30.3125-15.160156h22.113281v3.71875l-8.441406 5.601562-12.359375 8.28125-31.152344 23.367188-39.015625 15.597656c-2.386719.953125-4.175781 2.996094-4.800781 5.488282l-8 32c-1.015625 4.058593 1.265625 8.214843 5.234375 9.539062l24 8c2.492187.828125 5.234375.382812 7.335937-1.195312l29.863281-22.398438h34.023438l29.65625 29.65625c1.828125 1.824219 4.421875 2.65625 6.96875 2.230469l43.945312-7.320313 16.445313 16.449219-11.359375 17.046875-38.464844 23.082031c-1.925781 1.160157-3.277344 3.078125-3.71875 5.289063l-8 40c-.417968 2.078125.007813 4.238281 1.183594 6.007812l8.960938 13.429688-39.472657 5.601562-18.832031-18.785156v-36.6875c0-2.675781-1.335938-5.171875-3.558594-6.65625l-24-16c-1.691406-1.125-3.75-1.566406-5.753906-1.230469l-46.039062 7.671875-61.0625-20.351562c-28.425782-63.339844-25.789063-136.289063 7.125-197.410156zm197.289062 329.976562c-80.074219-.0625-154.03125-42.847656-194-112.230469l47.472656 15.824219c1.234375.410156 2.554688.511719 3.839844.292969l44.878906-7.480469 17.808594 11.875v35.71875c0 2.121094.84375 4.15625 2.34375 5.65625l24 24c1.5 1.5 3.535156 2.34375 5.65625 2.34375.378906 0 .761719-.027344 1.136719-.078125l56-8c2.71875-.390625 5.050781-2.148437 6.167969-4.660156 1.121093-2.507813.875-5.417969-.648438-7.703125l-14.160156-21.238282 6.65625-33.28125 36.96875-22.183593c1.011718-.601563 1.878906-1.421875 2.535156-2.398438l16-24c2.117188-3.175781 1.695312-7.402343-1-10.097656l-24-24c-1.828125-1.824219-4.421875-2.65625-6.96875-2.230469l-43.945312 7.320313-29.085938-29.089844c-1.496094-1.503906-3.53125-2.355469-5.65625-2.359375h-40c-1.730469 0-3.414062.5625-4.800781 1.601562l-28.648438 21.488282-13-4.335938 5.21875-20.84375 36.199219-14.476562c.652344-.265625 1.269531-.613282 1.832031-1.035156l31.640625-23.742188 24-16c2.222656-1.484375 3.558594-3.980469 3.558594-6.65625v-16c0-4.417969-3.582031-8-8-8h-32c-1.242188 0-2.464844.285156-3.574219.839844l-30.3125 15.160156h-14.113281v-9.753906l25.9375-6.484375c2.269531-.566407 4.175781-2.09375 5.222656-4.1875l16-32c1.125-2.25 1.125-4.898438 0-7.148438l-8-16c-1.617187-3.242187-5.210937-4.992187-8.761718-4.265625l-40 8c-1.546876.304688-2.972657 1.066406-4.085938 2.183594l-22.632812 22.664062-15.625 5.207032-4.855469-9.789063c-.386719-.773437-.894531-1.472656-1.503907-2.082031l-10.574218-10.535156c60.417968-95.1875 182.234375-130.53125 284.214844-82.457032l-10.648438 10.648438h-28.6875c-1.578125.003906-3.125.46875-4.441406 1.34375l-24 16c-3.675782 2.453125-4.667969 7.421875-2.214844 11.097656l13.054688 19.558594-13.039063 19.558594c-2.117187 3.175781-1.695313 7.402344 1 10.097656l24 24c1.496094 1.496094 3.523437 2.339844 5.640625 2.34375.859375 0 1.710938-.140625 2.527344-.40625l24-8c2.59375-.867188 4.570312-2.996094 5.234375-5.648438l7.101562-28.433593 26.066407-13.03125 29.132812 7.28125c2.726562.679687 5.609375-.121094 7.59375-2.105469l9.992188-9.992188c10.179687 11.5 19.15625 24.011719 26.792968 37.335938l-21.855468 15.609375-30.1875 7.550781-40 8c-1.917969.390625-3.625 1.472656-4.796876 3.039063l-22.296874 29.730469-29.242188 7.308593c-2.652344.664063-4.78125 2.640625-5.648438 5.234375l-8 24c-1.070312 3.183594-.039062 6.699219 2.585938 8.800782l40 32c1.949219 1.558593 4.515625 2.117187 6.9375 1.511718l32-8c1.035156-.257812 2.007812-.71875 2.863281-1.359375l28.648438-21.488281 18.230469 6.078125 9.601562 9.601563-27.527344 34.398437c-2.273437 2.847656-2.335937 6.867187-.152344 9.785156l24 32c.976563 1.300781 2.324219 2.277344 3.871094 2.792969l24.925782 8.292969c-38.675782 73.792969-115.085938 120.050781-198.398438 120.113281zm205.351562-134.648438-24.457031-8.152343-18.773437-25.039063 28.125-35.199218c2.550781-3.183594 2.292968-7.773438-.589844-10.65625l-16-16c-.878906-.878907-1.949219-1.542969-3.128906-1.9375l-24-8c-2.488282-.828126-5.226563-.382813-7.328125 1.191406l-30.703125 23.035156-26.59375 6.644531-32.550782-26.039062 4.847657-14.542969 27.738281-6.9375c1.785156-.4375 3.363281-1.484375 4.460938-2.957031l22.167968-29.554688 37.371094-7.488281 32-8c.972656-.238281 1.894531-.664062 2.710938-1.246094l21.359374-15.257812c28.105469 58.597656 29.328126 126.527344 3.34375 186.097656zm0 0" fill="url(#b)"/><path d="m224 32h16v16h-16zm0 0" fill="url(#c)"/><path d="m192 56h16v16h-16zm0 0" fill="url(#d)"/><path d="m384 360h16v16h-16zm0 0" fill="url(#e)"/><path d="m352 344h16v16h-16zm0 0" fill="url(#f)"/></svg>